{
    "accessors": [
        {
            "bufferView": 0,
            "componentType": 5126,
            "count": 67403,
            "max": [
                0.10618960112333298,
                0.11990880221128464,
                0.04032759740948677
            ],
            "min": [
                -0.10276731103658676,
                0.00013500000932253897,
                -0.03899670019745827
            ],
            "type": "VEC3"
        },
        {
            "bufferView": 1,
            "componentType": 5126,
            "count": 67403,
            "type": "VEC2"
        },
        {
            "bufferView": 2,
            "componentType": 5126,
            "count": 67403,
            "type": "VEC3"
        },
        {
            "bufferView": 3,
            "componentType": 5125,
            "count": 1704,
            "type": "SCALAR"
        },
        {
            "bufferView": 4,
            "componentType": 5125,
            "count": 63246,
            "type": "SCALAR"
        },
        {
            "bufferView": 5,
            "componentType": 5125,
            "count": 94134,
            "type": "SCALAR"
        },
        {
            "bufferView": 6,
            "componentType": 5125,
            "count": 5412,
            "type": "SCALAR"
        },
        {
            "bufferView": 7,
            "componentType": 5125,
            "count": 5760,
            "type": "SCALAR"
        },
        {
            "bufferView": 8,
            "componentType": 5125,
            "count": 1770,
            "type": "SCALAR"
        },
        {
            "bufferView": 9,
            "componentType": 5125,
            "count": 24,
            "type": "SCALAR"
        },
        {
            "bufferView": 10,
            "componentType": 5125,
            "count": 3348,
            "type": "SCALAR"
        },
        {
            "bufferView": 11,
            "componentType": 5125,
            "count": 50130,
            "type": "SCALAR"
        },
        {
            "bufferView": 12,
            "componentType": 5125,
            "count": 1992,
            "type": "SCALAR"
        },
        {
            "bufferView": 13,
            "componentType": 5125,
            "count": 30,
            "type": "SCALAR"
        }
    ],
    "asset": {
        "generator": "Adobe Creative Cloud",
        "version": "2.0"
    },
    "bufferViews": [
        {
            "buffer": 0,
            "byteLength": 808836
        },
        {
            "buffer": 0,
            "byteLength": 539224,
            "byteOffset": 808836
        },
        {
            "buffer": 0,
            "byteLength": 808836,
            "byteOffset": 1348060
        },
        {
            "buffer": 0,
            "byteLength": 6816,
            "byteOffset": 2156896
        },
        {
            "buffer": 0,
            "byteLength": 252984,
            "byteOffset": 2163712
        },
        {
            "buffer": 0,
            "byteLength": 376536,
            "byteOffset": 2416696
        },
        {
            "buffer": 0,
            "byteLength": 21648,
            "byteOffset": 2793232
        },
        {
            "buffer": 0,
            "byteLength": 23040,
            "byteOffset": 2814880
        },
        {
            "buffer": 0,
            "byteLength": 7080,
            "byteOffset": 2837920
        },
        {
            "buffer": 0,
            "byteLength": 96,
            "byteOffset": 2845000
        },
        {
            "buffer": 0,
            "byteLength": 13392,
            "byteOffset": 2845096
        },
        {
            "buffer": 0,
            "byteLength": 200520,
            "byteOffset": 2858488
        },
        {
            "buffer": 0,
            "byteLength": 7968,
            "byteOffset": 3059008
        },
        {
            "buffer": 0,
            "byteLength": 120,
            "byteOffset": 3066976
        },
        {
            "buffer": 0,
            "byteLength": 120996,
            "byteOffset": 3067096
        },
        {
            "buffer": 0,
            "byteLength": 1676099,
            "byteOffset": 3188092
        },
        {
            "buffer": 0,
            "byteLength": 1109708,
            "byteOffset": 4864191
        },
        {
            "buffer": 0,
            "byteLength": 53495,
            "byteOffset": 5973899
        },
        {
            "buffer": 0,
            "byteLength": 96628,
            "byteOffset": 6027394
        },
        {
            "buffer": 0,
            "byteLength": 30886,
            "byteOffset": 6124022
        },
        {
            "buffer": 0,
            "byteLength": 26940,
            "byteOffset": 6154908
        },
        {
            "buffer": 0,
            "byteLength": 84375,
            "byteOffset": 6181848
        },
        {
            "buffer": 0,
            "byteLength": 307906,
            "byteOffset": 6266223
        },
        {
            "buffer": 0,
            "byteLength": 16703,
            "byteOffset": 6574129
        }
    ],
    "buffers": [
        {
            "byteLength": 6590832,
            "uri": "3d_RC16_Jack.bin"
        }
    ],
    "images": [
        {
            "bufferView": 14,
            "mimeType": "image/jpeg",
            "name": "brake001_d.JPG"
        },
        {
            "bufferView": 15,
            "mimeType": "image/jpeg",
            "name": "livery002_d.JPG"
        },
        {
            "bufferView": 16,
            "mimeType": "image/jpeg",
            "name": "mechanics001_d.JPG"
        },
        {
            "bufferView": 17,
            "mimeType": "image/jpeg",
            "name": "rim001_d.JPG"
        },
        {
            "bufferView": 18,
            "mimeType": "image/jpeg",
            "name": "tyre001_001_d.JPG"
        },
        {
            "bufferView": 19,
            "mimeType": "image/jpeg",
            "name": "chain1_001_d.JPG"
        },
        {
            "bufferView": 20,
            "mimeType": "image/jpeg",
            "name": "gauge001_d.JPG"
        },
        {
            "bufferView": 21,
            "mimeType": "image/jpeg",
            "name": "glass001_d.JPG"
        },
        {
            "bufferView": 22,
            "mimeType": "image/jpeg",
            "name": "cockpit001_d.JPG"
        },
        {
            "bufferView": 23,
            "mimeType": "image/jpeg",
            "name": "lights_inc.JPG"
        }
    ],
    "materials": [
        {
            "alphaMode": "OPAQUE",
            "doubleSided": true,
            "emissiveFactor": [
                0.0,
                0.0,
                0.0
            ],
            "name": "mat_brake001",
            "pbrMetallicRoughness": {
                "baseColorFactor": [
                    0.5879999995231628,
                    0.5879999995231628,
                    0.5879999995231628,
                    1.0
                ],
                "baseColorTexture": {
                    "index": 0
                },
                "metallicFactor": 0.0,
                "roughnessFactor": 0.0
            }
        },
        {
            "alphaMode": "OPAQUE",
            "doubleSided": true,
            "emissiveFactor": [
                0.0,
                0.0,
                0.0
            ],
            "name": "mat_livery001",
            "pbrMetallicRoughness": {
                "baseColorFactor": [
                    0.5879999995231628,
                    0.5879999995231628,
                    0.5879999995231628,
                    1.0
                ],
                "baseColorTexture": {
                    "index": 1
                },
                "metallicFactor": 0.0,
                "roughnessFactor": 0.0
            }
        },
        {
            "alphaMode": "OPAQUE",
            "doubleSided": true,
            "emissiveFactor": [
                0.0,
                0.0,
                0.0
            ],
            "name": "mat_mechanics001",
            "pbrMetallicRoughness": {
                "baseColorFactor": [
                    0.5879999995231628,
                    0.5879999995231628,
                    0.5879999995231628,
                    1.0
                ],
                "baseColorTexture": {
                    "index": 2
                },
                "metallicFactor": 0.0,
                "roughnessFactor": 0.0
            }
        },
        {
            "alphaMode": "OPAQUE",
            "doubleSided": true,
            "emissiveFactor": [
                0.0,
                0.0,
                0.0
            ],
            "name": "mat_rim001",
            "pbrMetallicRoughness": {
                "baseColorFactor": [
                    0.5879999995231628,
                    0.5879999995231628,
                    0.5879999995231628,
                    1.0
                ],
                "baseColorTexture": {
                    "index": 3
                },
                "metallicFactor": 0.0,
                "roughnessFactor": 0.0
            }
        },
        {
            "alphaMode": "OPAQUE",
            "doubleSided": true,
            "emissiveFactor": [
                0.0,
                0.0,
                0.0
            ],
            "name": "mat_tyre001_001",
            "pbrMetallicRoughness": {
                "baseColorFactor": [
                    0.5879999995231628,
                    0.5879999995231628,
                    0.5879999995231628,
                    1.0
                ],
                "baseColorTexture": {
                    "index": 4
                },
                "metallicFactor": 0.0,
                "roughnessFactor": 0.0
            }
        },
        {
            "alphaMode": "OPAQUE",
            "doubleSided": true,
            "emissiveFactor": [
                0.0,
                0.0,
                0.0
            ],
            "name": "mat_chain1_001",
            "pbrMetallicRoughness": {
                "baseColorFactor": [
                    0.5879999995231628,
                    0.5879999995231628,
                    0.5879999995231628,
                    1.0
                ],
                "baseColorTexture": {
                    "index": 5
                },
                "metallicFactor": 0.0,
                "roughnessFactor": 0.0
            }
        },
        {
            "alphaMode": "OPAQUE",
            "doubleSided": true,
            "emissiveFactor": [
                0.0,
                0.0,
                0.0
            ],
            "name": "mat_gauge001",
            "pbrMetallicRoughness": {
                "baseColorFactor": [
                    0.5879999995231628,
                    0.5879999995231628,
                    0.5879999995231628,
                    1.0
                ],
                "baseColorTexture": {
                    "index": 6
                },
                "metallicFactor": 0.0,
                "roughnessFactor": 0.0
            }
        },
        {
            "alphaMode": "OPAQUE",
            "doubleSided": true,
            "emissiveFactor": [
                0.0,
                0.0,
                0.0
            ],
            "name": "mat_glass001",
            "pbrMetallicRoughness": {
                "baseColorFactor": [
                    0.5879999995231628,
                    0.5879999995231628,
                    0.5879999995231628,
                    1.0
                ],
                "baseColorTexture": {
                    "index": 7
                },
                "metallicFactor": 0.0,
                "roughnessFactor": 0.0
            }
        },
        {
            "alphaMode": "OPAQUE",
            "doubleSided": true,
            "emissiveFactor": [
                0.0,
                0.0,
                0.0
            ],
            "name": "mat_cockpit001",
            "pbrMetallicRoughness": {
                "baseColorFactor": [
                    0.5879999995231628,
                    0.5879999995231628,
                    0.5879999995231628,
                    1.0
                ],
                "baseColorTexture": {
                    "index": 8
                },
                "metallicFactor": 0.0,
                "roughnessFactor": 0.0
            }
        },
        {
            "alphaMode": "OPAQUE",
            "doubleSided": true,
            "emissiveFactor": [
                0.0,
                0.0,
                0.0
            ],
            "name": "mat_innerglass001",
            "pbrMetallicRoughness": {
                "baseColorFactor": [
                    0.5879999995231628,
                    0.5879999995231628,
                    0.5879999995231628,
                    1.0
                ],
                "baseColorTexture": {
                    "index": 7
                },
                "metallicFactor": 0.0,
                "roughnessFactor": 0.0
            }
        },
        {
            "alphaMode": "OPAQUE",
            "doubleSided": true,
            "emissiveFactor": [
                0.0,
                0.0,
                0.0
            ],
            "name": "mat_lights001",
            "pbrMetallicRoughness": {
                "baseColorFactor": [
                    0.5879999995231628,
                    0.5879999995231628,
                    0.5879999995231628,
                    1.0
                ],
                "baseColorTexture": {
                    "index": 9
                },
                "metallicFactor": 0.0,
                "roughnessFactor": 0.0
            }
        }
    ],
    "meshes": [
        {
            "name": "chassis108",
            "primitives": [
                {
                    "attributes": {
                        "NORMAL": 2,
                        "POSITION": 0,
                        "TEXCOORD_0": 1
                    },
                    "indices": 3,
                    "material": 0,
                    "mode": 4
                },
                {
                    "attributes": {
                        "NORMAL": 2,
                        "POSITION": 0,
                        "TEXCOORD_0": 1
                    },
                    "indices": 4,
                    "material": 1,
                    "mode": 4
                },
                {
                    "attributes": {
                        "NORMAL": 2,
                        "POSITION": 0,
                        "TEXCOORD_0": 1
                    },
                    "indices": 5,
                    "material": 2,
                    "mode": 4
                },
                {
                    "attributes": {
                        "NORMAL": 2,
                        "POSITION": 0,
                        "TEXCOORD_0": 1
                    },
                    "indices": 6,
                    "material": 3,
                    "mode": 4
                },
                {
                    "attributes": {
                        "NORMAL": 2,
                        "POSITION": 0,
                        "TEXCOORD_0": 1
                    },
                    "indices": 7,
                    "material": 4,
                    "mode": 4
                },
                {
                    "attributes": {
                        "NORMAL": 2,
                        "POSITION": 0,
                        "TEXCOORD_0": 1
                    },
                    "indices": 8,
                    "material": 5,
                    "mode": 4
                },
                {
                    "attributes": {
                        "NORMAL": 2,
                        "POSITION": 0,
                        "TEXCOORD_0": 1
                    },
                    "indices": 9,
                    "material": 6,
                    "mode": 4
                },
                {
                    "attributes": {
                        "NORMAL": 2,
                        "POSITION": 0,
                        "TEXCOORD_0": 1
                    },
                    "indices": 10,
                    "material": 7,
                    "mode": 4
                },
                {
                    "attributes": {
                        "NORMAL": 2,
                        "POSITION": 0,
                        "TEXCOORD_0": 1
                    },
                    "indices": 11,
                    "material": 8,
                    "mode": 4
                },
                {
                    "attributes": {
                        "NORMAL": 2,
                        "POSITION": 0,
                        "TEXCOORD_0": 1
                    },
                    "indices": 12,
                    "material": 9,
                    "mode": 4
                },
                {
                    "attributes": {
                        "NORMAL": 2,
                        "POSITION": 0,
                        "TEXCOORD_0": 1
                    },
                    "indices": 13,
                    "material": 10,
                    "mode": 4
                }
            ]
        }
    ],
    "nodes": [
        {
            "mesh": 0,
            "name": "chassis108"
        }
    ],
    "scene": 0,
    "scenes": [
        {
            "name": "Scene",
            "nodes": [
                0
            ]
        }
    ],
    "textures": [
        {
            "source": 0
        },
        {
            "source": 1
        },
        {
            "source": 2
        },
        {
            "source": 3
        },
        {
            "source": 4
        },
        {
            "source": 5
        },
        {
            "source": 6
        },
        {
            "source": 7
        },
        {
            "source": 8
        },
        {
            "source": 9
        }
    ]
}
